<svg width="87" height="24" viewBox="0 0 87 24" fill="none" xmlns="http://www.w3.org/2000/svg">
<path d="M0 6.51631V23.992H17.4763C21.0762 23.992 23.9928 21.0755 23.9928 17.4757V0H6.51651C2.9166 0 0 2.91651 0 6.51631ZM17.3929 21.8021C14.9896 21.8021 13.043 19.8556 13.043 17.4524C13.043 15.0492 14.9896 13.1026 17.3929 13.1026C19.7962 13.1026 21.7428 15.0492 21.7428 17.4524C21.7428 19.8556 19.7962 21.8021 17.3929 21.8021ZM21.7662 2.20655V10.9527H13.0197C13.0197 6.123 16.9363 2.20655 21.7662 2.20655ZM10.9497 2.20655V21.8055H2.17661V6.58631C2.17661 4.16644 4.13657 2.20655 6.55651 2.20655H10.9497Z" fill="#EE6454"/>
<path d="M33.4931 6.2251H32.7231C31.7298 6.2251 30.9265 7.02839 30.9265 8.02167V19.0977C30.9265 19.4644 31.2265 19.7644 31.5932 19.7644H33.4931C33.8698 19.7644 34.1764 19.4577 34.1764 19.0811V6.91173C34.1764 6.53508 33.8698 6.22843 33.4931 6.22843V6.2251Z" fill="#EE6454"/>
<path d="M55.0844 0.00585938H54.3144C53.3211 0.00585938 52.5178 0.809151 52.5178 1.80243V19.0948C52.5178 19.4615 52.8178 19.7615 53.1845 19.7615H55.0844C55.4611 19.7615 55.7677 19.4548 55.7677 19.0782V0.692491C55.7677 0.315844 55.4611 0.00919324 55.0844 0.00919324V0.00585938Z" fill="#EE6454"/>
<path d="M32.5483 0.354492C31.315 0.354492 30.3083 1.35777 30.3083 2.59437C30.3083 3.83097 31.3117 4.83425 32.5483 4.83425C33.7849 4.83425 34.7882 3.83097 34.7882 2.59437C34.7882 1.35777 33.7849 0.354492 32.5483 0.354492Z" fill="#EE6454"/>
<path d="M64.603 5.91748C60.7864 5.91748 57.6798 9.02398 57.6798 12.8404C57.6798 16.6569 60.7864 19.7634 64.603 19.7634C68.4196 19.7634 71.5261 16.6569 71.5261 12.8404C71.5261 9.02398 68.4196 5.91748 64.603 5.91748ZM64.6397 16.6269C62.573 16.6269 60.8897 14.9437 60.8897 12.8771C60.8897 10.8105 62.5697 9.12731 64.6397 9.12731C66.7096 9.12731 68.3896 10.8072 68.3896 12.8771C68.3896 14.947 66.7096 16.6269 64.6397 16.6269Z" fill="#EE6454"/>
<path d="M79.9805 5.91748C76.164 5.91748 73.0574 9.02398 73.0574 12.8404C73.0574 16.6569 76.164 19.7634 79.9805 19.7634C83.7971 19.7634 86.9037 16.6569 86.9037 12.8404C86.9037 9.02398 83.7971 5.91748 79.9805 5.91748ZM80.0172 16.6269C77.9506 16.6269 76.2673 14.9437 76.2673 12.8771C76.2673 10.8105 77.9473 9.12731 80.0172 9.12731C82.0872 9.12731 83.7671 10.8072 83.7671 12.8771C83.7671 14.947 82.0838 16.6269 80.0172 16.6269Z" fill="#EE6454"/>
<path d="M49.6785 6.26079H48.6118C47.9252 6.26079 47.3352 6.66411 47.0619 7.24741C46.8452 7.09075 46.6252 6.94076 46.3886 6.81077C45.3552 6.22746 44.1786 5.91748 42.9853 5.91748C39.1687 5.91748 36.0621 9.02398 36.0621 12.8404C36.0621 16.6569 39.1687 19.7634 42.9853 19.7634C44.1119 19.7634 45.2319 19.4867 46.2219 18.9601C46.4586 18.8334 46.6819 18.6935 46.9019 18.5468C46.9019 19.8201 45.8719 20.85 44.6019 20.8533H44.4053C43.482 20.8533 42.7353 21.6033 42.7353 22.5266V23.3999C42.7353 23.7298 43.002 23.9998 43.3353 23.9998H45.1253C47.9719 23.9998 50.2818 21.6933 50.2818 18.8434V6.85743C50.2818 6.52745 50.0151 6.25746 49.6818 6.25746L49.6785 6.26079ZM45.7886 15.1536C45.0186 16.1636 43.8153 16.7102 42.532 16.6202C40.692 16.4902 39.2021 14.9937 39.0721 13.1538C38.9154 10.9639 40.652 9.13397 42.8086 9.13397C43.9886 9.13397 45.0719 9.67061 45.7886 10.6072C46.2919 11.2639 46.5552 12.0505 46.5552 12.8804C46.5552 13.7104 46.2886 14.497 45.7852 15.1536H45.7886Z" fill="#EE6454"/>
</svg>
