<svg xmlns="http://www.w3.org/2000/svg" viewBox="0 0 30 20" aria-hidden="true">
  <rect width="30" height="20" fill="#b22234"/>
  <path
    fill="#fff"
    d="M0 1.54h30V3.08H0zm0 3.08h30v1.54H0zm0 3.08h30v1.54H0zm0 3.08h30v1.54H0zm0 3.08h30v1.54H0zm0 3.08h30v1.54H0z"
  />
  <rect width="12" height="10.77" fill="#3c3b6e"/>
  <g fill="#fff">
    <circle cx="1.5" cy="1.1" r="0.45"/>
    <circle cx="3.5" cy="1.1" r="0.45"/>
    <circle cx="5.5" cy="1.1" r="0.45"/>
    <circle cx="7.5" cy="1.1" r="0.45"/>
    <circle cx="9.5" cy="1.1" r="0.45"/>
    <circle cx="2.5" cy="2.2" r="0.45"/>
    <circle cx="4.5" cy="2.2" r="0.45"/>
    <circle cx="6.5" cy="2.2" r="0.45"/>
    <circle cx="8.5" cy="2.2" r="0.45"/>
    <circle cx="10.5" cy="2.2" r="0.45"/>
    <circle cx="1.5" cy="3.3" r="0.45"/>
    <circle cx="3.5" cy="3.3" r="0.45"/>
    <circle cx="5.5" cy="3.3" r="0.45"/>
    <circle cx="7.5" cy="3.3" r="0.45"/>
    <circle cx="9.5" cy="3.3" r="0.45"/>
    <circle cx="2.5" cy="4.4" r="0.45"/>
    <circle cx="4.5" cy="4.4" r="0.45"/>
    <circle cx="6.5" cy="4.4" r="0.45"/>
    <circle cx="8.5" cy="4.4" r="0.45"/>
    <circle cx="10.5" cy="4.4" r="0.45"/>
    <circle cx="1.5" cy="5.5" r="0.45"/>
    <circle cx="3.5" cy="5.5" r="0.45"/>
    <circle cx="5.5" cy="5.5" r="0.45"/>
    <circle cx="7.5" cy="5.5" r="0.45"/>
    <circle cx="9.5" cy="5.5" r="0.45"/>
    <circle cx="2.5" cy="6.6" r="0.45"/>
    <circle cx="4.5" cy="6.6" r="0.45"/>
    <circle cx="6.5" cy="6.6" r="0.45"/>
    <circle cx="8.5" cy="6.6" r="0.45"/>
    <circle cx="10.5" cy="6.6" r="0.45"/>
    <circle cx="1.5" cy="7.7" r="0.45"/>
    <circle cx="3.5" cy="7.7" r="0.45"/>
    <circle cx="5.5" cy="7.7" r="0.45"/>
    <circle cx="7.5" cy="7.7" r="0.45"/>
    <circle cx="9.5" cy="7.7" r="0.45"/>
    <circle cx="2.5" cy="8.8" r="0.45"/>
    <circle cx="4.5" cy="8.8" r="0.45"/>
    <circle cx="6.5" cy="8.8" r="0.45"/>
    <circle cx="8.5" cy="8.8" r="0.45"/>
    <circle cx="10.5" cy="8.8" r="0.45"/>
    <circle cx="1.5" cy="9.9" r="0.45"/>
    <circle cx="3.5" cy="9.9" r="0.45"/>
    <circle cx="5.5" cy="9.9" r="0.45"/>
    <circle cx="7.5" cy="9.9" r="0.45"/>
    <circle cx="9.5" cy="9.9" r="0.45"/>
  </g>
</svg>
